<svg height="546.56" viewBox="0 0 546.77 546.56" width="546.77" xmlns="http://www.w3.org/2000/svg"><g fill="#f9f9f9"><path d="m451.66 355.28 28.22-28.21 3-3 43.27-43.27a20.4 20.4 0 0 0 -28.85-28.84l-.14.14a20.39 20.39 0 1 1 -28.84-28.84l72.27-72.26a20.4 20.4 0 0 0 -28.85-28.84l-44.84 44.84a20.39 20.39 0 0 1 -28.84-28.84l82.34-82.35a20.4 20.4 0 0 0 0-28.84c-.14-.14-.29-.25-.42-.38s-.25-.29-.39-.43a20.4 20.4 0 0 0 -28.84 0l-82.34 82.34a20.39 20.39 0 0 1 -28.84-28.84l44.84-44.84a20.4 20.4 0 0 0 -28.84-28.82l-72.25 72.22a20.39 20.39 0 1 1 -28.84-28.84l.14-.14a20.4 20.4 0 0 0 -28.84-28.85l-43.27 43.27-3 3-28.23 28.23-67.46 67.46-28.21 28.22-3 3-43.29 43.28c-.48.49-.91 1-1.33 1.51l-42 42a20.4 20.4 0 0 0 28.85 28.84l44.46-44.47a20.35 20.35 0 0 1 27.86 29.65l-72.66 72.25a20.54 20.54 0 0 0 29.24 28.86l50.61-50.62a20.4 20.4 0 0 1 28.85 28.85l-11.81 11.81c-.43.36-.89.65-1.29 1.05l-3 3c-.4.41-.69.87-1 1.29l-65.25 65.19a20.4 20.4 0 0 0 0 28.84c.14.14.29.25.43.38s.24.29.38.43a20.4 20.4 0 0 0 28.84 0l65.17-65.17c.42-.36.88-.65 1.29-1.05l3-3c.4-.4.69-.86 1.05-1.29l11.81-11.81a20.4 20.4 0 1 1 28.84 28.85l-50.61 50.61a20.54 20.54 0 0 0 28.86 29.24l72.23-72.64a20.35 20.35 0 0 1 29.65 27.85l-44.47 44.47a20.4 20.4 0 0 0 28.84 28.85l42-42c.51-.42 1-.85 1.5-1.33l43.34-43.29 3-3 28.22-28.21z"/><rect height="41.22" rx="20.61" transform="matrix(.70710678 -.70710678 .70710678 .70710678 -178.68 446.44)" width="211.49" x="343.86" y="418.32"/><rect height="41.22" rx="20.61" transform="matrix(.70710678 -.70710678 .70710678 .70710678 -16.08 53.92)" width="99.14" x="7.49" y="25.76"/><rect height="41.22" rx="20.61" transform="matrix(.70710678 -.70710678 .70710678 .70710678 -201.91 502.51)" width="99.14" x="456.12" y="474.4"/><rect height="41.22" rx="20.61" transform="matrix(.70723018 -.70698336 .70698336 .70723018 -36.4 102.98)" width="211.49" x=".38" y="74.83"/></g><g fill="#f48024"><path d="m242.28 289.28h79.08v14.94h-79.08z"/><path d="m243.86 268.49 76.82 16.13 3.16-15.34-76.82-16.12z"/><path d="m285.01 201.9h15.7v78.5h-15.7z" transform="matrix(.4229346 -.90616021 .90616021 .4229346 -49.51 404.55)"/><path d="m273.73 196.73 60.39 50.27 10.11-12.02-60.54-50.26z"/><path d="m312.62 159.58-12.65 9.33 46.79 63.07 12.65-9.33z"/></g><path d="m352.73 272.85h-16.4v46.3h-109.08v-46.3h-16.43v62.74h31.28v25.17l25.18-25.17h85.45z" fill="#bcbbbb"/></svg>